<?xml version="1.0" encoding="UTF-8"?>
<!-- Generator: visioncortex VTracer 0.6.3 -->
<svg version="1.1" xmlns="http://www.w3.org/2000/svg" width="1280" height="1240">
<path d="M0 0 C422.4 0 844.8 0 1280 0 C1280 409.2 1280 818.4 1280 1240 C857.6 1240 435.2 1240 0 1240 C0 830.8 0 421.6 0 0 Z " fill="#2E5576" transform="translate(0,0)"/>
<path d="M0 0 C32.83 -0.02 65.67 -0.04 98.5 -0.05 C102.37 -0.05 106.25 -0.05 110.12 -0.05 C110.89 -0.06 111.66 -0.06 112.46 -0.06 C124.95 -0.06 137.45 -0.07 149.95 -0.08 C162.77 -0.09 175.58 -0.09 188.4 -0.09 C196.32 -0.1 204.23 -0.1 212.14 -0.11 C218.2 -0.11 224.26 -0.11 230.32 -0.11 C232.81 -0.11 235.31 -0.12 237.8 -0.12 C241.19 -0.12 244.58 -0.12 247.96 -0.12 C248.96 -0.12 249.96 -0.13 250.99 -0.13 C251.89 -0.13 252.79 -0.13 253.72 -0.12 C254.51 -0.12 255.29 -0.12 256.1 -0.12 C258 0 258 0 260 1 C260.03 3.15 260.05 5.29 260.06 7.44 C260.07 8.63 260.09 9.83 260.1 11.06 C260 14 260 14 259 15 C256.33 15.12 253.68 15.18 251.01 15.19 C249.75 15.2 249.75 15.2 248.47 15.21 C246.65 15.23 244.82 15.25 243 15.26 C240.12 15.28 237.23 15.31 234.35 15.34 C227.19 15.41 220.04 15.47 212.88 15.53 C206.83 15.58 200.79 15.63 194.74 15.69 C191.9 15.72 189.05 15.74 186.2 15.76 C184.46 15.78 182.73 15.79 180.99 15.81 C179.79 15.82 179.79 15.82 178.57 15.82 C174.99 15.53 174.99 15.53 172 17 C171.9 20.15 171.87 23.28 171.88 26.43 C171.88 27.94 171.88 27.94 171.87 29.48 C171.87 32.9 171.88 36.33 171.88 39.75 C171.88 42.21 171.88 44.67 171.88 47.12 C171.88 52.49 171.88 57.86 171.88 63.23 C171.89 71.22 171.89 79.21 171.89 87.19 C171.88 100.62 171.89 114.05 171.89 127.48 C171.9 140.79 171.9 154.09 171.91 167.4 C171.91 168.22 171.91 169.05 171.91 169.9 C171.91 174.09 171.91 178.29 171.91 182.49 C171.91 212.23 171.92 241.97 171.92 271.71 C171.93 300.61 171.94 329.52 171.95 358.42 C171.95 359.75 171.95 359.75 171.95 361.11 C171.95 370.05 171.95 379 171.95 387.94 C171.95 406.15 171.95 424.37 171.96 442.58 C171.96 443.42 171.96 444.26 171.96 445.12 C171.97 501.08 171.98 557.04 172 613 C196.9 613.05 221.79 613.08 246.69 613.1 C258.25 613.11 269.82 613.13 281.38 613.15 C291.47 613.17 301.56 613.18 311.64 613.19 C316.98 613.19 322.31 613.2 327.64 613.21 C375.14 613.92 375.14 613.92 420 600.29 C424.79 598 424.79 598 427 598 C427.34 597.1 427.34 597.1 427.69 596.19 C429 594 429 594 431.18 592.75 C434.76 590.53 437.49 587.81 440.44 584.81 C441.01 584.23 441.59 583.65 442.18 583.05 C450.07 575 450.07 575 455 565 C455.66 565 456.32 565 457 565 C457.1 564.3 457.21 563.6 457.31 562.88 C458.1 559.58 459.41 556.99 461 554 C461.56 552.89 462.11 551.77 462.69 550.62 C463.12 549.76 463.55 548.89 464 548 C464.66 548 465.32 548 466 548 C466.1 547.01 466.21 546.02 466.31 545 C467.04 539.99 468.9 535.53 470.91 530.9 C473.28 525.32 475.05 519.65 476.69 513.81 C476.9 513.05 477.12 512.29 477.34 511.51 C478.56 507.02 479.36 502.62 480 498 C480.43 496.51 480.9 495.02 481.44 493.56 C484.29 485.36 485.86 476.92 487.5 468.4 C488 466 488 466 488.94 462.81 C490.47 457.33 492 451.71 492 446 C492.66 446 493.32 446 494 446 C494.08 445.26 494.16 444.51 494.25 443.75 C495.16 440.41 496.32 439.15 499 437 C501.25 436.25 501.25 436.25 503 436 C511.18 445.77 509.15 459.84 509.15 472.01 C509.15 473.47 509.15 474.92 509.16 476.38 C509.16 480.29 509.17 484.2 509.17 488.11 C509.17 490.56 509.17 493.01 509.17 495.46 C509.18 504.02 509.19 512.58 509.19 521.15 C509.18 529.1 509.2 537.06 509.21 545.02 C509.22 551.88 509.23 558.74 509.23 565.6 C509.23 569.68 509.23 573.77 509.24 577.85 C509.25 581.69 509.25 585.53 509.24 589.37 C509.24 590.77 509.25 592.17 509.25 593.57 C509.33 613.33 509.33 613.33 502.9 621.21 C495.2 628.47 485.7 629.16 475.58 629.12 C474.75 629.12 473.93 629.13 473.08 629.13 C470.31 629.13 467.55 629.12 464.78 629.12 C462.78 629.12 460.78 629.12 458.78 629.12 C453.27 629.13 447.77 629.12 442.27 629.12 C436.33 629.11 430.4 629.11 424.47 629.11 C413.52 629.11 402.57 629.11 391.62 629.1 C381.5 629.1 371.39 629.1 361.28 629.09 C360.27 629.09 360.27 629.09 359.25 629.09 C355.84 629.09 352.44 629.09 349.03 629.09 C324.92 629.09 300.8 629.08 276.68 629.08 C253.26 629.07 229.83 629.06 206.4 629.05 C205.68 629.05 204.96 629.05 204.21 629.05 C196.96 629.05 189.71 629.05 182.46 629.05 C167.68 629.05 152.91 629.05 138.13 629.04 C137.45 629.04 136.77 629.04 136.07 629.04 C90.72 629.03 45.36 629.02 0 629 C0 624.05 0 619.1 0 614 C3.01 612.49 6.09 612.92 9.39 612.98 C10.53 612.99 10.53 612.99 11.69 613.01 C14.22 613.04 16.74 613.08 19.26 613.12 C21 613.15 22.75 613.17 24.5 613.19 C29.1 613.26 33.7 613.32 38.3 613.39 C42.99 613.47 47.68 613.53 52.37 613.6 C61.58 613.72 70.79 613.86 80 614 C80.02 557.1 80.03 500.2 80.04 443.29 C80.04 442.45 80.04 441.61 80.04 440.74 C80.05 422.46 80.05 404.17 80.05 385.89 C80.05 376.92 80.05 367.96 80.05 358.99 C80.06 357.65 80.06 357.65 80.06 356.29 C80.06 327.34 80.07 298.39 80.08 269.44 C80.09 239.7 80.09 209.97 80.09 180.23 C80.09 176.04 80.09 171.84 80.09 167.65 C80.09 166.82 80.1 166 80.1 165.15 C80.1 151.83 80.1 138.51 80.11 125.19 C80.11 111.82 80.11 98.44 80.11 85.07 C80.11 77.11 80.11 69.16 80.12 61.2 C80.12 55.28 80.12 49.35 80.12 43.43 C80.12 41.02 80.12 38.61 80.12 36.2 C80.13 32.95 80.13 29.7 80.12 26.45 C80.13 25.49 80.13 24.54 80.13 23.55 C80.54 19.45 80.54 19.45 79 16 C76.57 15.88 74.17 15.82 71.74 15.81 C70.98 15.8 70.22 15.79 69.44 15.79 C67.79 15.77 66.13 15.75 64.48 15.74 C61.87 15.72 59.25 15.69 56.64 15.66 C51.09 15.6 45.55 15.55 40 15.5 C33.58 15.44 27.15 15.38 20.73 15.31 C18.14 15.28 15.56 15.26 12.98 15.24 C11.41 15.22 9.83 15.21 8.26 15.19 C7.53 15.19 6.81 15.18 6.06 15.18 C1.11 15.11 1.11 15.11 0 14 C-0.07 11.65 -0.08 9.29 -0.06 6.94 C-0.05 5.65 -0.04 4.36 -0.04 3.03 C-0.02 2.03 -0.01 1.03 0 0 Z " fill="#E4E9EE" transform="translate(370,281)"/>
<path d="M0 0 C1.05 0.02 1.05 0.02 2.11 0.04 C4.28 0.08 6.46 0.15 8.63 0.23 C9.93 0.27 11.24 0.31 12.58 0.35 C16.62 0.5 20.65 0.69 24.69 0.92 C25.79 0.98 25.79 0.98 26.91 1.04 C39.38 1.75 51.74 3.05 64.13 4.67 C64.92 4.77 65.71 4.87 66.53 4.98 C71.9 5.69 77.27 6.45 82.63 7.23 C83.4 7.34 84.18 7.45 84.98 7.56 C96.97 9.28 108.64 11.72 120.38 14.67 C121.95 15.05 123.52 15.44 125.09 15.83 C129.61 16.94 134.12 18.08 138.63 19.23 C139.29 19.4 139.95 19.57 140.63 19.74 C149.64 22.05 158.51 24.66 167.35 27.53 C169.32 28.17 171.31 28.8 173.29 29.43 C182.41 32.36 191.39 35.56 199.94 39.92 C202.45 41.14 204.85 41.86 207.54 42.58 C216.49 45.36 225.03 49.73 233.44 53.79 C234.52 54.31 235.59 54.83 236.7 55.37 C254.85 64.17 272.5 73.57 289.63 84.23 C290.27 84.63 290.91 85.03 291.58 85.44 C305.78 94.27 319.34 104.09 332.63 114.23 C334.18 115.4 334.18 115.4 335.76 116.59 C348.1 125.9 359.64 136.07 370.92 146.63 C372.74 148.33 374.56 150.02 376.39 151.71 C385.97 160.58 395.53 169.46 404.02 179.4 C405.65 181.26 407.36 183 409.13 184.73 C430.83 206.14 449.16 232.7 465.63 258.23 C466.11 258.96 466.59 259.7 467.08 260.46 C467.54 261.17 468 261.89 468.47 262.62 C468.88 263.27 469.3 263.91 469.73 264.58 C470.63 266.23 470.63 266.23 470.63 268.23 C471.29 268.23 471.95 268.23 472.63 268.23 C473.16 269.21 473.16 269.21 473.7 270.21 C476.42 275.25 479.21 280.24 482.13 285.17 C484.93 289.94 487.46 294.79 489.89 299.76 C491.67 303.32 493.54 306.83 495.41 310.34 C499.23 317.49 502.98 324.54 505.63 332.23 C505.3 332.56 504.97 332.89 504.63 333.23 C505.29 333.23 505.95 333.23 506.63 333.23 C509.74 339.8 512.47 346.29 514.63 353.23 C510.07 349.43 505.78 345.48 501.63 341.23 C504.97 345.25 508.34 348.89 512.19 352.42 C518.8 358.94 520.96 367.18 523.81 375.78 C524.66 378.33 525.52 380.88 526.38 383.42 C526.99 385.21 527.59 387 528.19 388.79 C528.65 390.13 528.65 390.13 529.11 391.5 C530.63 396.01 532 400.5 533.1 405.13 C533.72 407.59 534.43 410.02 535.14 412.46 C544.19 443.39 549.89 475.04 552.4 507.16 C552.6 509.3 552.6 509.3 553.13 511.65 C554.08 516.58 554.03 521.6 554.19 526.61 C554.25 528.53 554.25 528.53 554.32 530.48 C554.69 543.11 554.74 555.73 554.75 568.36 C554.76 569.34 554.76 570.33 554.76 571.34 C554.78 581.71 554.69 592.06 554.25 602.41 C554.22 603.24 554.19 604.07 554.15 604.93 C553.96 608.78 553.8 611.96 551.63 615.23 C551.63 614.57 551.63 613.91 551.63 613.23 C550.64 613.23 549.65 613.23 548.63 613.23 C549.12 613.8 549.61 614.37 550.11 614.96 C554.6 621.68 550.97 633.8 549.94 641.29 C549.85 641.94 549.77 642.6 549.67 643.27 C547.89 656.37 545.43 669.3 542.63 682.23 C542.28 683.86 541.94 685.49 541.6 687.11 C538.41 702.02 534.46 716.7 530.07 731.29 C529.79 732.23 529.5 733.17 529.22 734.14 C527.57 739.53 525.7 744.76 523.54 749.97 C522.62 752.26 521.83 754.57 521.07 756.92 C517.26 768.55 517.26 768.55 513.63 771.23 C512.97 771.23 512.31 771.23 511.63 771.23 C511.96 771.89 512.29 772.55 512.63 773.23 C513.29 772.9 513.95 772.57 514.63 772.23 C512.47 779.17 509.74 785.66 506.63 792.23 C505.82 791.9 505.02 791.57 504.19 791.23 C501.93 790.17 501.93 790.17 500.63 790.23 C501.34 790.85 501.34 790.85 502.07 791.48 C503.95 793.59 504.4 794.4 504.63 797.23 C503.58 799.77 502.49 802.07 501.19 804.48 C500.44 805.92 499.7 807.36 498.95 808.79 C498.56 809.53 498.18 810.26 497.78 811.02 C496.33 813.81 494.94 816.63 493.56 819.46 C489.9 826.92 485.9 834.1 481.63 841.23 C480.44 843.29 479.25 845.35 478.07 847.42 C475.54 851.76 472.85 855.94 470.02 860.09 C468.63 862.23 467.4 864.41 466.19 866.67 C463.97 870.74 461.46 874.49 458.76 878.25 C457.14 880.52 455.55 882.79 453.97 885.08 C447.91 893.83 441.56 902.21 434.77 910.4 C432.77 912.82 430.82 915.25 428.93 917.75 C422.01 926.83 414.37 935.05 406.47 943.29 C403.98 945.92 401.55 948.6 399.13 951.29 C394.68 956.16 390.09 960.87 385.44 965.54 C384.79 966.2 384.13 966.86 383.46 967.54 C379.59 971.4 375.61 975.06 371.47 978.63 C369.02 980.76 366.64 982.96 364.25 985.17 C359.21 989.76 354 994.03 348.63 998.23 C347.5 999.13 346.37 1000.03 345.24 1000.93 C339.1 1005.8 332.95 1010.54 326.42 1014.89 C324.5 1016.12 324.5 1016.12 323.63 1018.23 C320.27 1020.28 317.36 1021.99 313.63 1023.23 C313.63 1023.89 313.63 1024.55 313.63 1025.23 C312.58 1025.81 311.53 1026.39 310.44 1026.98 C308.08 1028.32 306.17 1029.61 304.07 1031.36 C301.35 1033.44 298.85 1034.16 295.63 1035.23 C294.97 1036.22 294.31 1037.21 293.63 1038.23 C292.01 1039.21 290.39 1040.17 288.73 1041.07 C286.43 1042.34 284.19 1043.68 281.94 1045.04 C281.1 1045.55 280.26 1046.05 279.39 1046.57 C277.4 1047.77 275.41 1048.97 273.43 1050.17 C272.36 1050.81 271.29 1051.45 270.19 1052.11 C269.2 1052.7 268.21 1053.3 267.2 1053.91 C264.63 1055.23 264.63 1055.23 261.63 1055.23 C261.63 1055.89 261.63 1056.55 261.63 1057.23 C261.08 1057.48 260.54 1057.73 259.98 1057.99 C257.49 1059.15 254.99 1060.32 252.5 1061.48 C251.22 1062.07 251.22 1062.07 249.91 1062.68 C245.19 1064.89 240.97 1067.33 236.63 1070.23 C234.57 1071.11 232.49 1071.92 230.38 1072.67 C225.4 1074.51 220.71 1076.59 215.99 1079.02 C213.56 1080.27 211.11 1081.46 208.63 1082.61 C207.91 1082.94 207.19 1083.28 206.44 1083.63 C204.63 1084.23 204.63 1084.23 202.63 1083.23 C203.29 1082.24 203.95 1081.25 204.63 1080.23 C203.99 1080.97 203.35 1081.72 202.69 1082.48 C199.2 1085.94 195.15 1087.46 190.63 1089.23 C189.08 1089.85 189.08 1089.85 187.51 1090.48 C169.8 1097.47 169.8 1097.47 162.63 1097.23 C162.63 1097.89 162.63 1098.55 162.63 1099.23 C161.75 1099.46 160.87 1099.69 159.97 1099.93 C156.69 1100.8 153.42 1101.67 150.14 1102.54 C148.73 1102.91 147.31 1103.29 145.9 1103.66 C143.86 1104.2 141.82 1104.74 139.78 1105.29 C138.55 1105.61 137.33 1105.93 136.06 1106.27 C133.87 1106.88 131.7 1107.55 129.54 1108.28 C126.66 1109.22 123.86 1109.87 120.89 1110.45 C119.82 1110.66 118.75 1110.87 117.65 1111.09 C116.55 1111.3 115.45 1111.51 114.32 1111.73 C112.13 1112.16 109.95 1112.58 107.77 1113.01 C106.72 1113.22 105.67 1113.42 104.6 1113.63 C101.95 1114.17 99.32 1114.73 96.68 1115.33 C91.04 1116.6 85.36 1117.44 79.63 1118.23 C78.8 1118.35 77.97 1118.46 77.12 1118.58 C62.26 1120.61 47.41 1122.02 32.45 1123.04 C30.05 1123.2 27.64 1123.38 25.24 1123.57 C21.37 1123.86 17.51 1124.08 13.63 1124.23 C12.7 1124.27 11.78 1124.31 10.82 1124.35 C7.72 1124.47 4.61 1124.54 1.5 1124.61 C0.03 1124.66 0.03 1124.66 -1.48 1124.72 C-6.01 1124.77 -9.35 1124.78 -13.01 1121.93 C-15.37 1119.23 -15.37 1119.23 -16 1115.73 C-15.28 1111.74 -14.26 1110.04 -11.37 1107.23 C-7.98 1106.1 -5.37 1106.09 -1.79 1106.05 C-0.41 1106.03 0.97 1106.01 2.36 1105.99 C3.46 1105.97 3.46 1105.97 4.58 1105.96 C33.44 1105.46 62.24 1102.45 90.63 1097.23 C91.77 1097.02 92.91 1096.81 94.08 1096.6 C107.46 1094.32 107.46 1094.32 120.62 1091.11 C123.63 1090.23 126.34 1089.88 129.44 1089.67 C132.03 1089.15 134.26 1088.1 136.67 1087.03 C140.14 1085.62 143.76 1084.74 147.38 1083.79 C153.45 1082.16 159.37 1080.37 165.25 1078.13 C167.55 1077.26 169.86 1076.48 172.19 1075.73 C176.27 1074.39 180.21 1072.81 184.18 1071.19 C186.38 1070.33 188.57 1069.57 190.82 1068.86 C201.62 1065.32 211.99 1060.7 222.24 1055.83 C225.72 1054.19 229.23 1052.62 232.76 1051.07 C234.56 1050.26 236.31 1049.37 238.07 1048.48 C240.63 1047.23 240.63 1047.23 242.63 1047.23 C242.63 1046.57 242.63 1045.91 242.63 1045.23 C243.99 1044.7 243.99 1044.7 245.38 1044.17 C249.98 1042.2 254.19 1039.62 258.49 1037.07 C263.84 1033.93 269.25 1030.8 274.88 1028.19 C276.81 1027.35 276.81 1027.35 277.63 1025.23 C279.34 1024.27 279.34 1024.27 281.44 1023.29 C283.85 1022.14 285.8 1021.1 287.94 1019.48 C289.63 1018.23 289.63 1018.23 292.63 1018.23 C292.63 1017.57 292.63 1016.91 292.63 1016.23 C293.95 1015.9 295.27 1015.57 296.63 1015.23 C296.63 1014.57 296.63 1013.91 296.63 1013.23 C298.36 1012.07 298.36 1012.07 300.82 1010.73 C306.95 1007.17 312.42 1002.91 317.97 998.53 C320.6 996.47 323.28 994.45 325.94 992.42 C337.82 983.28 349.28 973.87 360.13 963.52 C362.55 961.21 365.03 959 367.56 956.81 C371.78 953.14 375.75 949.26 379.69 945.29 C380.36 944.63 381.03 943.96 381.72 943.28 C385.65 939.34 389.39 935.29 393.02 931.08 C395.25 928.51 397.56 926.03 399.88 923.54 C414.69 907.45 427.47 889.98 440.2 872.22 C441.14 870.91 442.09 869.59 443.05 868.28 C445.08 865.45 447 862.65 448.69 859.61 C450.63 856.23 450.63 856.23 452.5 853.98 C455.79 849.73 458.11 844.97 460.63 840.23 C461.58 838.5 462.54 836.77 463.5 835.04 C464.12 833.94 464.12 833.94 464.75 832.81 C465.18 832.03 465.18 832.03 465.63 831.23 C466.29 831.23 466.95 831.23 467.63 831.23 C467.76 830.46 467.76 830.46 467.89 829.68 C468.94 826.2 470.7 823.15 472.44 819.98 C473.17 818.64 473.9 817.3 474.62 815.95 C474.97 815.31 475.32 814.67 475.68 814.01 C476.84 811.84 477.93 809.63 479 807.42 C480.63 804.23 480.63 804.23 482.63 802.23 C482.98 800.9 483.31 799.57 483.63 798.23 C484.41 796.4 485.23 794.59 486.07 792.79 C487.69 789.31 489.23 785.82 490.63 782.23 C491.29 782.23 491.95 782.23 492.63 782.23 C492.57 781.53 492.52 780.83 492.46 780.11 C492.67 776.57 493.79 774.34 495.38 771.17 C497.9 765.91 499.88 760.73 501.64 755.18 C502.63 752.21 503.81 749.4 505.07 746.54 C507.3 741.3 508.99 735.98 510.54 730.5 C511.83 725.93 513.19 721.38 514.62 716.85 C514.97 715.73 515.32 714.6 515.68 713.45 C516.38 711.24 517.07 709.04 517.77 706.84 C520.21 699.05 522.03 691.24 523.63 683.23 C523.91 681.82 524.2 680.4 524.49 678.99 C525.25 675.2 525.99 671.41 526.74 667.62 C527.04 666.07 527.34 664.52 527.65 662.97 C544.8 576.64 539.74 481.03 511.39 397.48 C510.57 395.05 509.77 392.62 508.98 390.18 C505.88 380.69 502.67 371.37 498.63 362.23 C497.61 359.86 496.59 357.48 495.57 355.11 C495.06 353.93 494.55 352.75 494.03 351.54 C492.85 348.76 491.73 345.98 490.63 343.17 C486.18 331.9 480.73 321.1 474.82 310.54 C472.09 305.67 469.38 300.79 466.75 295.86 C452.28 269.31 434.92 244.55 416.03 220.98 C414.55 219.13 413.09 217.27 411.62 215.41 C404.61 206.58 397.16 198.3 389.36 190.17 C386.21 186.88 383.21 183.49 380.23 180.05 C374.9 173.99 369.01 168.44 362.88 163.2 C360.52 161.14 358.24 159.01 355.95 156.87 C350.81 152.08 345.62 147.48 340.08 143.15 C337.43 141.08 334.84 138.94 332.25 136.79 C315.98 123.48 298.62 111.39 280.66 100.47 C278.5 99.15 276.35 97.8 274.2 96.45 C266.3 91.52 258.37 86.93 249.98 82.88 C246.6 81.24 243.38 79.55 240.25 77.48 C236.91 75.29 233.51 73.93 229.78 72.52 C225.58 70.8 221.53 68.82 217.44 66.86 C203.94 60.4 190.15 55.28 175.99 50.48 C171.05 48.79 166.16 47.07 161.34 45.08 C157.79 43.63 154.33 42.55 150.6 41.7 C148.51 41.2 146.47 40.6 144.41 39.97 C105.97 28.28 64.9 21.14 24.79 19.78 C23.75 19.74 22.71 19.71 21.65 19.67 C16.44 19.49 11.24 19.33 6.04 19.23 C4.11 19.17 2.18 19.11 0.26 19.05 C-1.07 19.04 -1.07 19.04 -2.42 19.03 C-6.65 18.87 -9.55 18.53 -12.94 15.87 C-15.37 13.23 -15.37 13.23 -15.87 10.17 C-15.07 5.47 -15.07 5.47 -13.37 3.23 C-8.75 0.42 -5.37 -0.12 0 0 Z " fill="#E3E9EE" transform="translate(698.37109375,33.76953125)"/>
<path d="M0 0 C0.72 -0.04 1.43 -0.07 2.17 -0.11 C5.94 -0.18 7.68 0.03 10.52 2.58 C12.08 5.41 12.58 7.25 12.88 10.44 C13.43 14 13.43 14 15.49 16.8 C17.31 17.85 19.1 18.63 21.06 19.38 C22.18 19.91 23.29 20.45 24.44 21 C28.59 22.58 32.71 23.54 37.06 24.38 C37.32 23.76 37.58 23.15 37.85 22.52 C39.87 18.94 42.34 18.04 46.06 16.38 C50.05 17.6 52.93 20.73 55.88 23.56 C56.65 24.25 56.65 24.25 57.44 24.95 C58.89 26.36 58.89 26.36 61.06 29.38 C60.99 34.96 59.44 37.15 56.06 41.38 C54.34 46.98 55.51 50.28 58.03 55.3 C59.06 57.38 59.06 57.38 59.94 60.25 C61.65 63.49 63.68 64.12 67.06 65.38 C68.45 65.55 69.85 65.7 71.25 65.81 C75.06 66.38 75.06 66.38 76.81 67.81 C78.77 71.83 78.24 75.62 77.94 80 C77.9 80.87 77.87 81.74 77.83 82.64 C77.54 87.46 77.54 87.46 77.06 89.38 C73.7 91.62 72.03 91.49 68.1 91.25 C65.49 91.41 64.21 91.85 62.06 93.38 C58.23 99.71 54.8 106.88 55.06 114.38 C56.75 117.71 56.75 117.71 59.06 120.38 C61.06 123.38 61.06 123.38 60.99 126.23 C59.83 130.15 58.13 131.88 55.19 134.69 C53.86 135.98 53.86 135.98 52.51 137.3 C50.06 139.38 50.06 139.38 47.06 140.38 C43.57 138.6 40.82 137.13 38.06 134.38 C31.92 132.17 26.74 134.99 21.06 137.38 C19.89 137.85 18.71 138.32 17.5 138.81 C14.42 140.79 13.91 141.83 13.06 145.38 C12.83 147.71 12.63 150.04 12.5 152.39 C12.06 154.38 12.06 154.38 9.06 156.38 C7.12 156.63 7.12 156.63 4.94 156.64 C4.15 156.64 3.36 156.65 2.55 156.65 C1.73 156.64 0.91 156.63 0.06 156.62 C-0.76 156.63 -1.58 156.64 -2.42 156.65 C-3.61 156.64 -3.61 156.64 -4.81 156.64 C-5.53 156.64 -6.25 156.64 -6.99 156.63 C-8.94 156.38 -8.94 156.38 -11.94 154.38 C-12.85 151.44 -12.85 151.44 -13.56 147.94 C-14.56 143.11 -14.56 143.11 -15.94 138.38 C-18.77 136.92 -21.87 136.21 -24.94 135.38 C-25.8 135.12 -26.66 134.86 -27.55 134.6 C-32.05 133.44 -34.08 132.95 -38.38 135.06 C-41.25 137.62 -41.25 137.62 -43.94 140.38 C-51.77 138.61 -57.34 132.7 -61.94 126.38 C-60.41 122.57 -59.21 119.72 -56.62 116.5 C-54.54 112.64 -54.79 111 -55.98 106.89 C-59.21 97.98 -59.21 97.98 -65.88 91.81 C-66.89 91.67 -67.9 91.52 -68.94 91.38 C-75.74 89.68 -75.74 89.68 -77.94 86.38 C-78.19 83.68 -78.31 81.13 -78.31 78.44 C-78.34 77.72 -78.36 77.01 -78.39 76.27 C-78.41 72.86 -78.2 70.76 -76.26 67.92 C-73.52 66.1 -71.7 65.83 -68.44 65.56 C-64.56 65.06 -64.56 65.06 -61.44 62.95 C-60.4 61.12 -59.65 59.34 -58.94 57.38 C-58.38 56.22 -57.82 55.06 -57.25 53.88 C-55.3 48.77 -55.3 48.77 -54.94 43.38 C-56.61 40.64 -58.44 38.19 -60.47 35.71 C-61.94 33.38 -61.94 33.38 -61.72 31.22 C-59.19 25.28 -55.27 21 -49.94 17.38 C-47.46 16.49 -47.46 16.49 -44.94 16.38 C-42.69 17.55 -42.69 17.55 -40.5 19.25 C-36.98 21.96 -34.42 23.13 -29.94 23.38 C-26.82 22.62 -26.82 22.62 -23.81 21.25 C-22.8 20.83 -21.79 20.42 -20.74 19.99 C-16.49 17.54 -14.43 15 -13 10.3 C-12.79 9.25 -12.59 8.2 -12.38 7.12 C-11.75 3.92 -11.75 3.92 -10.94 1.38 C-7.27 0.15 -3.82 0.08 0 0 Z " fill="#F9FCFE" transform="translate(779.9375,218.625)"/>
<path d="M0 0 C1.05 0.02 1.05 0.02 2.11 0.04 C4.28 0.08 6.46 0.15 8.63 0.23 C9.93 0.27 11.24 0.31 12.58 0.35 C16.62 0.5 20.65 0.69 24.69 0.92 C25.79 0.98 25.79 0.98 26.91 1.04 C39.38 1.75 51.74 3.05 64.13 4.67 C64.92 4.77 65.71 4.87 66.53 4.98 C71.9 5.69 77.27 6.45 82.63 7.23 C83.4 7.34 84.18 7.45 84.98 7.56 C96.97 9.28 108.64 11.72 120.38 14.67 C121.95 15.05 123.52 15.44 125.09 15.83 C129.61 16.94 134.12 18.08 138.63 19.23 C139.29 19.4 139.95 19.57 140.63 19.74 C149.64 22.05 158.51 24.66 167.35 27.53 C169.32 28.17 171.31 28.8 173.29 29.43 C182.41 32.36 191.39 35.56 199.94 39.92 C202.45 41.14 204.85 41.86 207.54 42.58 C216.49 45.36 225.03 49.73 233.44 53.79 C234.52 54.31 235.59 54.83 236.7 55.37 C258.1 65.75 278.91 76.89 298.63 90.23 C297.49 93.65 296.41 94.52 293.69 96.79 C291.6 98.56 289.57 100.29 287.63 102.23 C282.4 102.23 279.21 99.79 275.11 96.9 C271.71 94.61 268.13 92.73 264.51 90.8 C261.53 89.18 258.61 87.46 255.69 85.73 C245.71 79.88 235.24 75.03 224.74 70.2 C222.54 69.19 220.36 68.16 218.18 67.14 C205.27 61.13 192.06 56.14 178.67 51.32 C176.06 50.39 173.46 49.44 170.87 48.48 C160.77 44.78 150.52 41.8 140.16 38.94 C137.82 38.28 135.5 37.61 133.17 36.92 C120.49 33.19 107.62 30.64 94.63 28.23 C93.48 28.01 92.33 27.8 91.15 27.57 C69.12 23.45 47.19 20.54 24.79 19.78 C23.75 19.74 22.71 19.71 21.65 19.67 C16.44 19.49 11.24 19.33 6.04 19.23 C4.11 19.17 2.18 19.11 0.26 19.05 C-1.07 19.04 -1.07 19.04 -2.42 19.03 C-6.65 18.87 -9.55 18.53 -12.94 15.87 C-15.37 13.23 -15.37 13.23 -15.87 10.17 C-15.07 5.47 -15.07 5.47 -13.37 3.23 C-8.75 0.42 -5.37 -0.12 0 0 Z " fill="#E3E8ED" transform="translate(698.37109375,33.76953125)"/>
<path d="M0 0 C3.3 0 6.6 0 10 0 C10.27 1.07 10.54 2.14 10.81 3.25 C12 6.15 12.81 6.9 15.65 8.36 C18.41 9.34 21.17 10.23 24 11 C24.44 10.5 24.89 10.01 25.35 9.5 C27 8 27 8 29.44 8 C32.86 9.34 34.14 10.85 36 14 C35.81 16.38 35.81 16.38 35 19 C34.04 24.06 34.04 24.06 35 29 C37.76 31.15 37.76 31.15 40.56 31.38 C43 32 43 32 44.31 33.62 C45.25 36.86 45.25 39.66 45 43 C43 45 43 45 40 45.31 C39.01 45.54 38.02 45.77 37 46 C35.54 48.19 35.54 48.19 35 51 C34.6 52.42 34.6 52.42 34.19 53.88 C33.94 58.05 35.14 60.28 37 64 C35.02 65.98 33.04 67.96 31 70 C29.67 69.54 29.67 69.54 28.31 69.06 C27.22 68.71 26.13 68.36 25 68 C24.17 67.73 23.35 67.46 22.5 67.19 C19.02 66.93 16.99 68.34 14 70 C13.34 70 12.68 70 12 70 C11.81 71.7 11.81 71.7 11.62 73.44 C11.42 74.61 11.21 75.79 11 77 C8.77 78.11 7.47 78.16 5 78.19 C3.95 78.21 3.95 78.21 2.88 78.23 C1 78 1 78 -1 76 C-1.59 74.27 -1.59 74.27 -2.19 72.5 C-3.7 68.73 -3.7 68.73 -7.38 67.38 C-11.6 66.94 -12.57 67.74 -16 70 C-19.83 70 -20.94 69.06 -23.81 66.44 C-24.53 65.63 -25.26 64.83 -26 64 C-25.69 63.44 -25.38 62.89 -25.06 62.31 C-23.07 57.97 -22.66 55.94 -24.31 51.31 C-26.62 46.77 -28.39 45.77 -33 44 C-34 43 -34 43 -34.12 39.62 C-34 36 -34 36 -33 33 C-32.07 32.75 -31.14 32.5 -30.19 32.25 C-26.39 30.76 -25.35 29.43 -23.55 25.88 C-22.65 22.82 -23.67 20.79 -25 18 C-26 15 -26 15 -25.31 12.44 C-24 10 -24 10 -22.19 8.62 C-19.39 7.83 -17.77 8.17 -15 9 C-14.37 9.38 -13.74 9.75 -13.1 10.14 C-11.05 11.21 -11.05 11.21 -8.96 10.57 C-5.13 8.67 -2.72 7.29 -1 3.25 C-0.67 2.18 -0.34 1.11 0 0 Z " fill="#F9FCFE" transform="translate(678,377)"/>
<path d="M0 0 C7.75 6.8 13.91 14.73 14.82 25.23 C15.17 35.22 13.26 42.32 6.88 50.06 C1.47 55.77 -4.95 59.79 -12.88 60.45 C-23.73 60.64 -32.69 57.81 -41.44 51.25 C-43.79 48.61 -44.44 47.86 -44.44 44.25 C-45.1 44.25 -45.76 44.25 -46.44 44.25 C-48.54 38.32 -50.2 32.42 -51.44 26.25 C-50.78 26.25 -50.12 26.25 -49.44 26.25 C-49.38 24.95 -49.31 23.65 -49.25 22.31 C-48.3 14.1 -43.78 7.6 -37.88 1.98 C-33.25 -1.3 -27.92 -2.55 -22.44 -3.75 C-21.45 -3.97 -20.46 -4.19 -19.45 -4.42 C-12.81 -5.15 -5.88 -2.99 0 0 Z " fill="#2E5576" transform="translate(797.4375,268.75)"/>
<path d="M0 0 C5.96 3.37 8.9 7.79 10.75 14.38 C12.03 25.02 9.39 35.16 6.75 45.38 C6.37 46.87 6.37 46.87 5.99 48.39 C3.38 57.92 -0.8 67.74 -9.25 73.38 C-17.01 75.45 -22.94 73.33 -30 70.12 C-34.67 66.49 -37.39 62.61 -38.31 56.69 C-39.06 40.63 -33.47 18 -23.76 5.01 C-17.45 -1.81 -8.52 -3.9 0 0 Z " fill="#2E5576" transform="translate(456.25,1108.625)"/>
<path d="M0 0 C0 0.99 0 1.98 0 3 C1.73 4.8 1.73 4.8 3.94 6.5 C7.89 9.68 7.89 9.68 9 13 C9.66 13 10.32 13 11 13 C11 13.66 11 14.32 11 15 C10.07 15.2 9.15 15.41 8.19 15.62 C6.4 16.03 6.4 16.03 4.56 16.44 C3.37 16.7 2.17 16.97 0.94 17.25 C-1.87 17.7 -1.87 17.7 -3 19 C-4.74 19.42 -6.49 19.78 -8.25 20.12 C-9.88 20.44 -9.88 20.44 -11.54 20.77 C-12.68 20.99 -13.82 21.21 -15 21.44 C-17.23 21.87 -19.46 22.31 -21.69 22.75 C-22.76 22.96 -23.84 23.17 -24.95 23.39 C-27.63 23.93 -30.3 24.5 -32.96 25.1 C-38.6 26.37 -44.28 27.21 -50 28 C-50.83 28.11 -51.66 28.23 -52.51 28.35 C-67.37 30.37 -82.22 31.79 -97.18 32.8 C-99.58 32.97 -101.98 33.15 -104.39 33.34 C-108.26 33.63 -112.12 33.85 -116 34 C-116.93 34.04 -117.85 34.08 -118.8 34.12 C-121.91 34.24 -125.02 34.31 -128.12 34.38 C-129.11 34.41 -130.1 34.45 -131.11 34.49 C-135.64 34.54 -138.98 34.55 -142.64 31.7 C-145 29 -145 29 -145.62 25.5 C-144.91 21.51 -143.89 19.8 -141 17 C-137.61 15.87 -134.99 15.86 -131.42 15.82 C-130.04 15.8 -128.66 15.78 -127.27 15.76 C-126.54 15.75 -125.8 15.74 -125.05 15.73 C-96.18 15.23 -67.39 12.22 -39 7 C-37.86 6.79 -36.72 6.58 -35.55 6.37 C-22.15 4.09 -22.15 4.09 -8.97 0.86 C-5.85 -0.04 -3.24 -0.16 0 0 Z " fill="#E4E9EE" transform="translate(828,1124)"/>
<path d="M0 0 C0.99 0.49 0.99 0.49 2 1 C-0.72 5.65 -3.8 8.69 -7.91 12.14 C-10.68 14.6 -13.02 17.34 -15.41 20.16 C-17.48 22.56 -19.75 24.75 -22 27 C-23.71 28.97 -25.35 30.98 -27 33 C-27.66 32.67 -28.32 32.34 -29 32 C-28.01 30.52 -28.01 30.52 -27 29 C-27.96 30.11 -27.96 30.11 -28.94 31.25 C-32.43 34.71 -36.47 36.23 -41 38 C-42.03 38.41 -43.06 38.83 -44.12 39.25 C-61.83 46.24 -61.83 46.24 -69 46 C-69 46.66 -69 47.32 -69 48 C-72.06 48.87 -75.12 49.72 -78.19 50.56 C-79.05 50.81 -79.92 51.06 -80.81 51.31 C-89.23 53.6 -89.23 53.6 -93 52 C-94.91 50.22 -94.91 50.22 -96.62 48.06 C-98.72 45.45 -100.17 43.89 -103 42 C-102 39 -102 39 -100.1 37.5 C-95.68 35.37 -91.11 34.27 -86.38 33.06 C-79.54 31.26 -72.83 29.42 -66.23 26.86 C-63.99 26 -61.73 25.24 -59.44 24.5 C-55.36 23.16 -51.42 21.58 -47.45 19.96 C-45.25 19.1 -43.06 18.34 -40.81 17.62 C-27.72 13.35 -14.83 7.72 -2.69 1.23 C-1.8 0.82 -0.92 0.42 0 0 Z " fill="#E0E6EC" transform="translate(930,1085)"/>
<path d="M0 0 C1.86 3.19 2.29 5.63 2.41 9.3 C2.47 10.95 2.47 10.95 2.53 12.63 C2.58 14.45 2.58 14.45 2.62 16.31 C2.66 17.6 2.7 18.88 2.74 20.2 C3.07 32.84 3.11 45.48 3.12 58.12 C3.13 59.11 3.13 60.1 3.13 61.11 C3.15 71.48 3.06 81.83 2.62 92.18 C2.59 93.01 2.56 93.84 2.53 94.7 C2.34 98.55 2.17 101.73 0 105 C0 104.34 0 103.68 0 103 C-0.68 102.84 -1.36 102.67 -2.06 102.5 C-5.8 100.59 -7.76 98.02 -10.35 94.78 C-11.98 92.74 -11.98 92.74 -15 92 C-15.19 81.95 -15.33 71.9 -15.41 61.85 C-15.46 57.19 -15.51 52.52 -15.6 47.85 C-15.69 43.35 -15.74 38.84 -15.76 34.33 C-15.77 32.62 -15.8 30.9 -15.85 29.19 C-16.17 15.72 -16.17 15.72 -13.25 11.43 C-11.25 9.66 -9.3 8.33 -7 7 C-5.65 5.71 -4.31 4.4 -3 3.06 C-2.42 2.48 -1.85 1.89 -1.25 1.29 C-0.84 0.86 -0.42 0.44 0 0 Z " fill="#E5EAEF" transform="translate(1250,544)"/>
<path d="M0 0 C0.44 0.38 0.87 0.75 1.32 1.14 C5.19 4.46 9.08 7.75 13 11 C11 15.01 7.94 16.71 4.07 18.84 C1.79 20.12 -0.45 21.46 -2.69 22.81 C-3.53 23.32 -4.37 23.82 -5.23 24.34 C-7.23 25.54 -9.22 26.74 -11.2 27.94 C-12.27 28.58 -13.34 29.22 -14.44 29.88 C-15.43 30.47 -16.41 31.07 -17.43 31.68 C-20 33 -20 33 -23 33 C-23 33.66 -23 34.32 -23 35 C-23.54 35.25 -24.09 35.5 -24.65 35.76 C-27.14 36.92 -29.63 38.08 -32.12 39.25 C-32.98 39.65 -33.84 40.04 -34.72 40.45 C-39.44 42.66 -43.66 45.1 -48 48 C-50.06 48.87 -52.14 49.69 -54.25 50.44 C-59.28 52.3 -64.03 54.39 -68.78 56.89 C-71.17 58.08 -73.46 59.16 -76 60 C-76.99 59.67 -77.98 59.34 -79 59 C-75.13 54.37 -71.21 50.2 -66.55 46.36 C-64.81 44.92 -64.81 44.92 -63 42.5 C-61.24 40.29 -59.6 38.77 -57.44 37 C-55.17 35.13 -53.98 33.97 -52.5 31.38 C-50.29 27.88 -47.69 26.81 -44 25 C-43.34 25 -42.68 25 -42 25 C-42 24.34 -42 23.68 -42 23 C-41.09 22.65 -40.18 22.3 -39.25 21.94 C-34.65 19.97 -30.44 17.39 -26.14 14.84 C-20.79 11.7 -15.38 8.57 -9.75 5.96 C-7.82 5.12 -7.82 5.12 -7 3 C-4.69 1.95 -2.36 0.94 0 0 Z " fill="#E3E8EE" transform="translate(983,1056)"/>
<path d="M0 0 C0 0.33 0 0.66 0 1 C-1.7 1.22 -1.7 1.22 -3.44 1.44 C-6.81 1.61 -6.81 1.61 -8 3 C-8.04 4.58 -8.01 6.16 -7.95 7.74 C-7.91 8.77 -7.87 9.8 -7.83 10.86 C-7.79 12 -7.74 13.14 -7.69 14.31 C-7.64 15.49 -7.59 16.67 -7.54 17.88 C-7.11 28.3 -6.57 38.71 -6 49.12 C-5.96 49.9 -5.92 50.67 -5.87 51.47 C-5.45 59.34 -4.99 67.18 -4 75 C0.95 74.51 0.95 74.51 6 74 C6 74.33 6 74.66 6 75 C2.39 75.81 -1.04 76.18 -4.74 76.32 C-5.8 76.36 -6.87 76.4 -7.97 76.44 C-9.07 76.48 -10.18 76.52 -11.31 76.56 C-12.43 76.61 -13.56 76.65 -14.71 76.69 C-17.48 76.8 -20.24 76.9 -23 77 C-23 76.67 -23 76.34 -23 76 C-20.69 76 -18.38 76 -16 76 C-16.15 75.1 -16.3 74.2 -16.46 73.27 C-17.24 67.77 -17.44 62.22 -17.72 56.67 C-17.78 55.49 -17.84 54.3 -17.91 53.08 C-18.11 49.3 -18.3 45.53 -18.5 41.75 C-18.7 37.99 -18.89 34.22 -19.09 30.46 C-19.21 28.13 -19.34 25.79 -19.45 23.45 C-19.81 16.62 -20.33 9.81 -21 3 C-25.23 3.25 -29.46 3.53 -33.69 3.81 C-35.48 3.92 -35.48 3.92 -37.32 4.03 C-38.48 4.11 -39.63 4.19 -40.82 4.27 C-41.89 4.34 -42.95 4.41 -44.05 4.48 C-47.32 5.06 -49.31 6.07 -52 8 C-55.3 13.06 -56.73 19.16 -58 25 C-61.64 19.54 -62.01 10.48 -61 4 C-55.27 0.18 -47.55 1.86 -41 3 C-41 2.34 -41 1.68 -41 1 C-39.45 1.02 -39.45 1.02 -37.86 1.04 C-36.49 1.04 -35.12 1.05 -33.75 1.06 C-32.73 1.08 -32.73 1.08 -31.68 1.09 C-28.26 1.1 -25.3 0.85 -22 0 C-18.69 -0.07 -15.4 0 -12.09 0.06 C-0.67 -0.17 -0.67 -0.17 0 0 Z " fill="#E4E9EE" transform="translate(634,1122)"/>
<path d="M0 0 C5.83 0.48 9.89 2.19 14.94 5.06 C15.62 5.44 16.31 5.82 17.01 6.21 C18.68 7.13 20.34 8.06 22 9 C22 9.66 22 10.32 22 11 C22.66 11 23.32 11 24 11 C23.47 12.94 23.47 12.94 22 15 C19.39 15.56 17.14 15.83 14.49 15.97 C13.72 16.03 12.94 16.08 12.15 16.14 C9.58 16.32 7.01 16.48 4.45 16.63 C2.66 16.75 0.88 16.88 -0.9 17 C-5.59 17.33 -10.29 17.64 -14.99 17.94 C-22.5 18.42 -30.01 18.93 -37.52 19.45 C-40.15 19.63 -42.77 19.8 -45.4 19.96 C-47.01 20.07 -48.62 20.18 -50.23 20.29 C-50.96 20.33 -51.69 20.37 -52.45 20.41 C-56.1 20.67 -58.84 21.14 -62 23 C-63.66 23.38 -65.32 23.72 -67 24 C-67.22 20.16 -66.73 17.71 -64.94 14.31 C-64.55 13.55 -64.17 12.78 -63.78 11.99 C-59.31 6.99 -50.49 7.42 -44.24 6.93 C-43.21 6.84 -42.18 6.76 -41.13 6.67 C-38.96 6.49 -36.79 6.31 -34.62 6.14 C-31.34 5.88 -28.06 5.6 -24.78 5.32 C-22.66 5.15 -20.54 4.98 -18.43 4.8 C-17.46 4.72 -16.49 4.64 -15.5 4.56 C-8.65 4.02 -1.86 3.91 5 4 C4.01 3.67 3.02 3.34 2 3 C2 2.34 2 1.68 2 1 C1.01 0.5 1.01 0.5 0 0 Z " fill="#E4E9EE" transform="translate(127,377)"/>
<path d="M0 0 C0.99 0.33 1.98 0.66 3 1 C4.19 4.06 4.19 4.06 5 7 C8.96 7.33 12.92 7.66 17 8 C17 8.66 17 9.32 17 10 C18.98 10 20.96 10 23 10 C23 10.66 23 11.32 23 12 C23.7 12.16 24.4 12.33 25.12 12.5 C31.47 15.81 34.88 22.71 37.24 29.25 C40.21 39.97 39.27 50.78 35 61 C32.74 64.82 30.15 67.89 27 71 C26.35 71.67 25.69 72.33 25.02 73.02 C17.34 80.3 8.91 83.13 -1.56 83.19 C-2.68 83.2 -3.79 83.22 -4.94 83.23 C-7.88 83.01 -9.52 82.53 -12 81 C-10.42 79.42 -8.63 79.88 -6.44 79.81 C1.89 79.03 6.93 73.64 12.08 67.45 C22.4 54.27 32.75 40.62 31 23 C29.69 18.71 27.32 15.93 23.5 13.62 C17.27 10.73 11.65 9.72 5.02 12.05 C2.98 12.91 0.95 13.8 -1.07 14.71 C-4 16 -6.95 17.03 -10 18 C-7.52 11.44 -3.85 5.83 0 0 Z " fill="#E5EAEF" transform="translate(286,1031)"/>
<path d="M0 0 C3.85 1.51 5.51 3.77 8 7 C9.33 8.69 10.67 10.38 12 12.06 C12.66 12.9 13.32 13.74 14 14.6 C15.89 16.87 17.87 18.95 20 21 C19.67 21.66 19.34 22.32 19 23 C16.69 21.02 14.38 19.04 12 17 C11.67 18.32 11.34 19.64 11 21 C9.3 23.76 7.55 26.46 5.71 29.13 C4.06 31.67 3.01 33.48 2.97 36.55 C4.34 39.81 6.26 42.13 8.56 44.81 C9.39 45.79 10.22 46.76 11.07 47.77 C11.7 48.51 12.34 49.24 13 50 C12.01 50 11.02 50 10 50 C8.06 47.85 8.06 47.85 6 45.06 C3.21 41.08 3.21 41.08 -1 39 C-1.27 39.73 -1.55 40.47 -1.83 41.22 C-2.94 43.85 -4.18 46.08 -5.71 48.47 C-6.24 49.29 -6.76 50.11 -7.29 50.95 C-7.84 51.79 -8.38 52.63 -8.94 53.5 C-10.01 55.18 -11.08 56.85 -12.15 58.53 C-12.65 59.31 -13.15 60.09 -13.66 60.89 C-15.15 63.23 -16.59 65.6 -18 68 C-17.34 68.33 -16.68 68.66 -16 69 C-21.94 71.31 -27.88 73.62 -34 76 C-35 72 -35 72 -33.63 69.22 C-32.95 68.18 -32.27 67.14 -31.56 66.06 C-30.82 64.91 -30.07 63.75 -29.33 62.59 C-28.75 61.7 -28.75 61.7 -28.16 60.8 C-26.32 57.94 -24.57 55.03 -22.81 52.12 C-20.72 48.71 -18.61 45.36 -16.25 42.12 C-14.32 39.45 -12.69 36.75 -11.09 33.87 C-9.86 31.76 -8.5 29.76 -7.12 27.75 C-4.19 23.42 -1.72 18.92 0.7 14.29 C2 12 2 12 4 10 C3.68 6.03 2.16 3.29 0 0 Z " fill="#E3E9EE" transform="translate(176,920)"/>
<path d="M0 0 C0.33 0 0.66 0 1 0 C1.06 0.86 1.11 1.72 1.17 2.6 C1.38 5.79 1.59 8.98 1.8 12.17 C1.89 13.55 1.98 14.93 2.07 16.31 C2.2 18.29 2.33 20.28 2.46 22.27 C2.54 23.46 2.62 24.65 2.7 25.88 C2.94 28.4 3.37 30.57 4 33 C4.04 35.33 4.04 37.67 4 40 C3.67 40 3.34 40 3 40 C2.67 36.7 2.34 33.4 2 30 C-4.88 30.53 -11.76 31.06 -18.64 31.6 C-20.97 31.78 -23.3 31.96 -25.63 32.14 C-37.46 33.05 -49.29 33.99 -61.11 35.07 C-62 35.15 -62.89 35.23 -63.81 35.31 C-67.73 35.33 -67.73 35.33 -71 37 C-71.04 39.33 -71.04 41.67 -71 44 C-73.36 40.46 -73.66 37.42 -74.12 33.31 C-74.21 32.63 -74.3 31.95 -74.39 31.24 C-74.95 26.47 -75.24 21.81 -75 17 C-74.34 16.34 -73.68 15.68 -73 15 C-72.67 17.64 -72.34 20.28 -72 23 C-68.83 24.06 -67.22 23.99 -63.94 23.67 C-62.91 23.57 -61.88 23.48 -60.81 23.38 C-59.13 23.21 -59.13 23.21 -57.42 23.04 C-56.26 22.93 -55.1 22.82 -53.91 22.71 C-50.19 22.35 -46.47 21.99 -42.75 21.62 C-37.89 21.16 -33.03 20.69 -28.17 20.23 C-27.01 20.12 -25.85 20 -24.65 19.89 C-16.44 19.11 -8.24 18.45 0 18 C-0.33 17.67 -0.66 17.34 -1 17 C-0.91 14.13 -0.76 11.3 -0.56 8.44 C-0.51 7.63 -0.46 6.82 -0.4 5.99 C-0.27 4 -0.14 2 0 0 Z " fill="#E5EAEF" transform="translate(87,666)"/>
<path d="M0 0 C2.86 1.43 3.03 3.17 4.16 6.13 C4.76 7.68 4.76 7.68 5.38 9.26 C5.79 10.35 6.2 11.44 6.62 12.56 C7.05 13.65 7.47 14.75 7.9 15.87 C8.94 18.58 9.97 21.29 11 24 C10.34 24.33 9.68 24.66 9 25 C8.01 22.69 7.02 20.38 6 18 C0.75 19.66 -4.36 21.51 -9.47 23.56 C-10.11 23.82 -10.74 24.08 -11.4 24.34 C-13.6 25.22 -15.8 26.11 -18 27 C-18.83 27.34 -19.66 27.67 -20.52 28.02 C-26.99 30.63 -33.46 33.25 -39.94 35.88 C-41.89 36.67 -43.85 37.46 -45.8 38.25 C-50.54 40.17 -55.27 42.08 -60 44 C-59.67 47.3 -59.34 50.6 -59 54 C-59.66 52.68 -60.32 51.36 -61 50 C-61.67 48.75 -62.34 47.5 -63.02 46.25 C-63.76 44.83 -64.51 43.42 -65.25 42 C-65.83 40.93 -65.83 40.93 -66.43 39.84 C-69.17 34.56 -69.17 34.56 -68.23 31.5 C-67.83 31 -67.42 30.51 -67 30 C-66.67 30.66 -66.34 31.32 -66 32 C-61.87 31.43 -58.37 30.5 -54.55 28.86 C-53.54 28.43 -52.52 28 -51.48 27.55 C-50.43 27.1 -49.39 26.65 -48.31 26.19 C-41.39 23.23 -34.48 20.39 -27.39 17.86 C-24.57 16.85 -21.82 15.73 -19.06 14.56 C-18.08 14.15 -17.09 13.73 -16.07 13.3 C-13.93 12.39 -11.79 11.48 -9.64 10.57 C-8.57 10.11 -7.49 9.66 -6.38 9.19 C-5.39 8.77 -4.41 8.35 -3.4 7.92 C-1 7 -1 7 1 7 C0.5 3.53 0.5 3.53 0 0 Z " fill="#E4E9EE" transform="translate(123,821)"/>
<path d="M0 0 C0.66 0.33 1.32 0.66 2 1 C1.01 1.33 0.02 1.66 -1 2 C1.92 8.98 5.38 15.6 9 22.23 C9.39 22.95 9.77 23.67 10.17 24.4 C10.52 25.05 10.88 25.69 11.24 26.36 C12 28 12 28 12 30 C12.66 30 13.32 30 14 30 C14 30.66 14 31.32 14 32 C15.49 32.5 15.49 32.5 17 33 C16.34 33 15.68 33 15 33 C15.81 34.63 16.63 36.25 17.44 37.88 C18.15 39.3 18.86 40.73 19.58 42.16 C21.48 45.96 23.38 49.76 25.31 53.55 C25.68 54.28 26.05 55 26.42 55.75 C27.13 57.15 27.85 58.55 28.56 59.95 C31 64.78 31 64.78 31 67 C34.96 66.01 34.96 66.01 39 65 C36.95 67.22 35.05 68.66 32.35 70.01 C31.65 70.35 30.96 70.7 30.24 71.06 C29.16 71.59 29.16 71.59 28.06 72.12 C27.35 72.48 26.63 72.84 25.89 73.21 C22.6 74.84 19.6 76.2 16 77 C20.75 73 20.75 73 23 73 C23 72.34 23 71.68 23 71 C22.01 70.67 21.02 70.34 20 70 C18.48 67.5 17.13 65.04 15.81 62.44 C15.21 61.28 15.21 61.28 14.6 60.1 C11.82 54.67 9.09 49.22 6.39 43.75 C2.28 35.49 -2 27.32 -6.25 19.14 C-6.84 18.02 -7.42 16.89 -8.02 15.73 C-8.81 14.22 -8.81 14.22 -9.61 12.68 C-10.76 10.46 -11.89 8.24 -13 6 C-11.4 5.19 -9.79 4.37 -8.19 3.56 C-7.29 3.11 -6.4 2.66 -5.48 2.19 C-3 1 -3 1 0 0 Z " fill="#E4E9EE" transform="translate(311,132)"/>
<path d="M0 0 C-0.99 0.33 -1.98 0.66 -3 1 C-2.82 1.96 -2.64 2.92 -2.45 3.91 C-1.78 7.46 -1.11 11.01 -0.44 14.56 C-0.15 16.1 0.14 17.64 0.44 19.18 C0.86 21.39 1.27 23.6 1.69 25.8 C1.82 26.49 1.95 27.18 2.09 27.89 C3 32.77 3 32.77 3 35 C7.45 34.5 7.45 34.5 12 34 C9.08 35.46 7.08 36.34 4 37 C4.69 41.32 5.39 45.65 6.08 49.97 C6.32 51.44 6.55 52.91 6.79 54.38 C7.13 56.5 7.47 58.61 7.81 60.73 C8.01 62 8.22 63.28 8.43 64.59 C8.9 67.41 9.42 70.2 10 73 C11.65 73 13.3 73 15 73 C15 73.33 15 73.66 15 74 C9.72 74.66 4.44 75.32 -1 76 C-2.3 71.44 -3.4 67.27 -4.22 62.65 C-4.44 61.44 -4.65 60.23 -4.88 58.98 C-5.11 57.69 -5.33 56.41 -5.57 55.08 C-5.81 53.73 -6.05 52.38 -6.29 51.03 C-6.92 47.49 -7.55 43.95 -8.18 40.42 C-9.18 34.74 -10.19 29.07 -11.21 23.4 C-11.56 21.42 -11.91 19.44 -12.26 17.46 C-12.47 16.26 -12.69 15.06 -12.91 13.83 C-13.1 12.77 -13.28 11.72 -13.48 10.63 C-13.96 7.91 -13.96 7.91 -15 5 C-17.64 4.67 -20.28 4.34 -23 4 C-23 3.67 -23 3.34 -23 3 C-20.69 3 -18.38 3 -16 3 C-16 2.34 -16 1.68 -16 1 C-5.63 -1.48 -5.63 -1.48 0 0 Z " fill="#E5EAEF" transform="translate(469,77)"/>
<path d="M0 0 C0 0.99 0 1.98 0 3 C-0.66 3.66 -1.32 4.32 -2 5 C-1.7 8.59 -0.03 10.35 2.46 12.82 C3.16 13.52 3.86 14.22 4.58 14.94 C5.32 15.66 6.05 16.38 6.81 17.12 C7.54 17.85 8.26 18.58 9.01 19.33 C12.61 23.13 12.61 23.13 16.99 25.85 C19.96 27.55 21.16 30.14 23 33 C24.58 34.76 26.21 36.47 27.88 38.14 C28.8 39.07 29.72 39.99 30.67 40.94 C31.14 41.41 31.62 41.88 32.11 42.37 C33.57 43.82 35.02 45.28 36.47 46.74 C37.85 48.12 37.85 48.12 39.25 49.52 C40.09 50.36 40.93 51.19 41.8 52.05 C43.93 54.19 43.93 54.19 47 55 C47 55.66 47 56.32 47 57 C48.14 55.98 48.14 55.98 49.31 54.94 C50.64 53.98 50.64 53.98 52 53 C53.49 53.5 53.49 53.5 55 54 C54.04 54.88 53.07 55.76 52.08 56.67 C50.8 57.84 49.53 59.01 48.25 60.19 C47.62 60.77 46.98 61.34 46.33 61.94 C43.55 64.5 41.03 66.96 38.67 69.93 C37.84 70.95 37.84 70.95 37 72 C36.34 72 35.68 72 35 72 C36.2 69.51 37.45 67.32 39 65 C38.27 64.27 37.54 63.54 36.79 62.79 C20.86 46.86 4.93 30.93 -11 15 C-12.65 16.32 -14.3 17.64 -16 19 C-16.66 18.67 -17.32 18.34 -18 18 C-16.13 15.93 -14.25 13.87 -12.38 11.81 C-11.59 10.95 -11.59 10.95 -10.79 10.06 C-7.41 6.37 -3.92 3.12 0 0 Z " fill="#E3E8EE" transform="translate(171,237)"/>
<path d="M0 0 C0.66 0.33 1.32 0.66 2 1 C1.67 3.31 1.34 5.62 1 8 C1.89 8.16 1.89 8.16 2.8 8.33 C8.24 9.34 13.69 10.35 19.14 11.36 C24.88 12.42 30.62 13.48 36.36 14.54 C40.28 15.26 44.2 15.98 48.12 16.71 C50.09 17.07 52.05 17.43 54.01 17.79 C56.79 18.3 59.57 18.81 62.35 19.33 C63.19 19.48 64.04 19.64 64.91 19.79 C70.77 20.89 70.77 20.89 73 22 C72.72 24.58 72.42 27.17 72.12 29.75 C72.05 30.48 71.97 31.21 71.89 31.96 C71.45 35.67 71 38.8 69 42 C69.03 39.98 69.07 37.96 69.1 35.95 C69.13 33.92 69.13 33.92 68 32 C66 31.6 66 31.6 63.6 31.5 C58.11 31.05 52.84 30.1 47.45 29 C46.48 28.81 45.51 28.62 44.5 28.42 C41.42 27.8 38.33 27.18 35.25 26.56 C16.71 22.81 16.71 22.81 -2 20 C-2.33 20.66 -2.66 21.32 -3 22 C-3.98 18.2 -3.93 15.5 -3.06 11.69 C-2.87 10.8 -2.67 9.92 -2.47 9.01 C-2.24 8.02 -2.24 8.02 -2 7 C-1.34 7 -0.68 7 0 7 C0 4.69 0 2.38 0 0 Z " fill="#E5EAEF" transform="translate(23,512)"/>
<path d="M0 0 C4.33 3.85 7.5 7.88 9.44 13.38 C9.12 19.52 6.47 24.78 2.12 29.12 C-3.63 30.88 -10.01 30.96 -15.69 28.81 C-20.25 26.11 -22.26 23.84 -23.62 18.69 C-23.82 12.9 -23.02 8.25 -19.38 3.62 C-13.94 -1.81 -7.22 -2.63 0 0 Z " fill="#2E5576" transform="translate(690.75,401)"/>
<path d="M0 0 C5 5.61 7.39 10.14 7.28 17.72 C6.68 22.65 3.51 25.69 -0.06 28.81 C-3 31 -3 31 -6 32 C-5.41 32.1 -4.82 32.2 -4.21 32.3 C2.54 33.57 6.46 35.62 10.56 41.25 C13.41 45.95 14.44 51.11 15.48 56.45 C16.15 59.61 16.65 61.65 18.95 63.97 C21.45 65.22 23.24 65.23 26 65 C22.34 68.5 17.97 69.77 13 70 C9.25 69.15 6.91 67.4 4.82 64.18 C2.71 59.75 1.4 55.07 0 50.38 C-2.63 41.45 -2.63 41.45 -9 35 C-10.99 34.61 -12.99 34.27 -15 34 C-14.2 33.66 -14.2 33.66 -13.38 33.31 C-9.25 31.03 -5.53 28.6 -4 24 C-3.35 17.07 -4.41 11.4 -7 5 C-7.66 3.35 -8.32 1.7 -9 0 C-13.29 -0.33 -17.58 -0.66 -22 -1 C-22 -1.33 -22 -1.66 -22 -2 C-5.93 -4.04 -5.93 -4.04 0 0 Z " fill="#E4E9EE" transform="translate(496,77)"/>
<path d="M0 0 C2.97 0.49 2.97 0.49 6 1 C6 1.66 6 2.32 6 3 C6.59 3.1 7.18 3.2 7.79 3.31 C13.65 5.14 17.98 11.74 20.93 16.87 C26.21 27.41 27.11 40.74 23.44 52 C18.9 62.54 10.37 71.17 0 76 C-3 76.57 -5.95 76.86 -9 77 C-7.51 76.51 -7.51 76.51 -6 76 C-5.5 75.01 -5.5 75.01 -5 74 C-4.24 73.26 -3.47 72.52 -2.69 71.75 C9.27 59.51 13.43 36.88 13.28 20.27 C12.76 14.24 10.83 9.83 6.56 5.56 C4.09 4.06 1.73 2.94 -1 2 C-0.67 1.34 -0.34 0.68 0 0 Z " fill="#E5EAEF" transform="translate(453,1106)"/>
<path d="M0 0 C0.75 0 1.5 0.01 2.27 0.01 C4.12 0.03 5.97 0.04 7.81 0.06 C7.81 0.39 7.81 0.72 7.81 1.06 C7.02 1.16 6.22 1.26 5.4 1.36 C-3.13 2.47 -3.13 2.47 -10.19 7.06 C-15.06 13.89 -17.74 20.9 -19.94 28.94 C-20.23 29.94 -20.52 30.94 -20.82 31.96 C-26.05 49.3 -26.05 49.3 -22.92 66.46 C-20.37 70.04 -18.25 72.29 -14.19 74.06 C-15.67 74.56 -15.67 74.56 -17.19 75.06 C-25.42 70.27 -32.26 62.85 -35.28 53.78 C-38.64 40.24 -36.93 28.62 -29.84 16.53 C-22.81 6.04 -12.6 -0.14 0 0 Z " fill="#E5EAEF" transform="translate(444.1875,1105.9375)"/>
<path d="M0 0 C0.99 0 1.98 0 3 0 C4.22 3.8 4.11 7.43 4.1 11.39 C4.1 12.1 4.09 12.8 4.09 13.53 C4.09 15.77 4.08 18.01 4.06 20.25 C4.06 21.77 4.05 23.3 4.05 24.82 C4.04 28.55 4.02 32.27 4 36 C18.59 38.62 33.19 41.23 47.8 43.74 C48.68 43.89 49.56 44.05 50.46 44.2 C51.6 44.4 51.6 44.4 52.77 44.6 C54.4 44.89 56.03 45.26 57.64 45.67 C58.42 45.78 59.2 45.89 60 46 C62.33 44.17 62.33 44.17 64 42 C65.49 42.5 65.49 42.5 67 43 C64.55 45.32 62.09 47.63 59.62 49.94 C58.93 50.6 58.23 51.26 57.51 51.94 C56.5 52.88 56.5 52.88 55.48 53.84 C54.86 54.42 54.24 55 53.6 55.6 C52 57 52 57 50 58 C50 57.34 50 56.68 50 56 C49.34 55.89 48.68 55.78 47.99 55.67 C39.57 54.27 31.15 52.85 22.73 51.4 C21.19 51.13 19.64 50.87 18.09 50.6 C15.83 50.22 13.57 49.83 11.31 49.44 C10.62 49.32 9.93 49.21 9.22 49.09 C5.86 48.5 3.88 47.92 1 46 C0.64 44.17 0.64 44.17 0.66 41.92 C0.66 41.08 0.66 40.24 0.66 39.37 C0.68 38.46 0.69 37.55 0.71 36.62 C0.71 35.69 0.72 34.76 0.72 33.8 C0.74 30.83 0.77 27.85 0.81 24.88 C0.83 22.86 0.84 20.85 0.85 18.83 C0.89 13.89 0.94 8.94 1 4 C-0.98 5.32 -2.96 6.64 -5 8 C-3.63 5.05 -2.17 2.43 0 0 Z " fill="#E4E9EE" transform="translate(189,218)"/>
<path d="M0 0 C5 5.61 7.39 10.14 7.28 17.72 C6.68 22.59 3.54 25.66 0.06 28.81 C-2.84 30.89 -4.5 31.69 -8 32 C-6 28 -6 28 -4.95 26.15 C-2.26 20.05 -3.92 13.1 -6.15 7.11 C-6.43 6.41 -6.71 5.72 -7 5 C-7.66 3.35 -8.32 1.7 -9 0 C-13.29 -0.33 -17.58 -0.66 -22 -1 C-22 -1.33 -22 -1.66 -22 -2 C-5.93 -4.04 -5.93 -4.04 0 0 Z " fill="#E5EAEF" transform="translate(496,77)"/>
<path d="M0 0 C0.78 0.16 1.57 0.33 2.38 0.5 C2.38 0.83 2.38 1.16 2.38 1.5 C1.76 1.66 1.15 1.82 0.51 1.98 C-4.66 3.4 -4.66 3.4 -8.56 6.88 C-8.91 7.74 -9.26 8.61 -9.62 9.5 C-9.98 10.26 -10.33 11.03 -10.69 11.81 C-11.91 15.33 -12.76 18.87 -13.62 22.5 C-17.26 17.04 -17.64 7.98 -16.62 1.5 C-11.61 -1.84 -5.81 -0.8 0 0 Z " fill="#E5EAEF" transform="translate(589.625,1124.5)"/>
<path d="M0 0 C1.34 2.67 0.99 4.64 0.88 7.62 C0.86 14.19 1.3 19.05 5.84 24.01 C9.08 26.99 11.58 29.22 16 30 C16 30.66 16 31.32 16 32 C11.93 31.47 9.78 30.37 6.75 27.62 C6.06 27.02 5.38 26.41 4.67 25.79 C3 24 3 24 2 21 C1.34 21 0.68 21 0 21 C-0.39 20.17 -0.78 19.35 -1.19 18.5 C-2.08 17.26 -2.08 17.26 -3 16 C-6.63 15.58 -6.63 15.58 -10 16 C-9.34 12.52 -7.94 9.9 -6.12 6.88 C-5.61 6.01 -5.1 5.14 -4.57 4.24 C-3 2 -3 2 0 0 Z " fill="#E7ECF1" transform="translate(258,1080)"/>
<path d="M0 0 C2.36 3.01 4.32 6.11 6.19 9.44 C6.72 10.36 7.25 11.29 7.79 12.25 C9.04 15.1 9.25 16.92 9 20 C6.71 21.36 4.42 22.72 2.12 24.06 C1.47 24.45 0.82 24.84 0.15 25.24 C-1.53 26.22 -3.26 27.12 -5 28 C-5.66 27.67 -6.32 27.34 -7 27 C-6.03 26.42 -5.06 25.84 -4.06 25.25 C-0.98 23.41 -0.98 23.41 -0.32 21.26 C0.09 18.34 0.13 15.51 0.12 12.56 C0.13 11.45 0.13 10.34 0.13 9.19 C0.08 6.04 0.08 6.04 -0.57 3.15 C-0.71 2.44 -0.85 1.73 -1 1 C-0.67 0.67 -0.34 0.34 0 0 Z " fill="#E5EAEF" transform="translate(365,165)"/>
<path d="M0 0 C2.62 -0.12 4.33 -0.2 6.48 1.4 C8.15 3.6 8.24 4.87 8.33 7.61 C8.39 8.88 8.39 8.88 8.44 10.18 C8.46 11.06 8.48 11.94 8.51 12.85 C8.56 14.19 8.56 14.19 8.61 15.56 C8.69 17.76 8.76 19.96 8.82 22.16 C8.49 22.16 8.16 22.16 7.82 22.16 C7.57 21.15 7.33 20.14 7.07 19.1 C5.56 13.94 3.77 9.51 -0.8 6.35 C-5.19 4.81 -9.6 3.93 -14.18 3.16 C-13.85 2.5 -13.52 1.84 -13.18 1.16 C-8.84 0.37 -4.4 0.33 0 0 Z " fill="#EAEFF3" transform="translate(78.1796875,643.8359375)"/>
<path d="M0 0 C2.63 2.28 3.68 4.83 5.1 7.99 C5.63 9.14 6.16 10.3 6.71 11.48 C7.79 14.55 7.79 14.55 6.79 17.55 C6.4 17 6.01 16.44 5.61 15.87 C5.09 15.15 4.57 14.42 4.04 13.68 C3.52 12.96 3.01 12.24 2.49 11.5 C0.6 9.33 -0.49 8.46 -3.21 7.55 C-6.72 7.31 -6.72 7.31 -10.46 7.43 C-11.73 7.44 -12.99 7.46 -14.29 7.48 C-15.26 7.5 -16.22 7.53 -17.21 7.55 C-16.55 7.22 -15.89 6.89 -15.21 6.55 C-15.21 5.89 -15.21 5.23 -15.21 4.55 C-13.14 3.66 -11.05 2.79 -8.96 1.93 C-7.8 1.44 -6.64 0.95 -5.45 0.45 C-2.21 -0.45 -2.21 -0.45 0 0 Z " fill="#F9FCFE" transform="translate(110.21484375,790.44921875)"/>
<path d="M0 0 C0.99 0.33 1.98 0.66 3 1 C3.95 3.29 3.95 3.29 4.69 6.06 C5.06 7.44 5.06 7.44 5.45 8.85 C5.63 9.56 5.81 10.27 6 11 C3.71 12.2 1.42 13.38 -0.88 14.56 C-1.53 14.9 -2.18 15.25 -2.85 15.6 C-4.54 16.46 -6.27 17.24 -8 18 C-8.66 17.67 -9.32 17.34 -10 17 C-6.89 11.17 -3.8 5.41 0 0 Z " fill="#E4E9EE" transform="translate(286,1031)"/>
<path d="M0 0 C1.8 2.45 3.28 4.75 4.75 7.38 C5.16 8.07 5.57 8.77 6 9.49 C9 14.68 9 14.68 9 17 C8.34 17 7.68 17 7 17 C6.81 16.44 6.63 15.89 6.44 15.31 C3.9 11.24 0.37 8.59 -4.32 7.43 C-8.17 6.94 -11.25 6.9 -15 8 C-10.8 3.6 -6.17 0 0 0 Z " fill="#E5EAEF" transform="translate(338,119)"/>
<path d="M0 0 C3.11 6.57 5.84 13.06 8 20 C2.76 15.63 -2.52 11.17 -7 6 C-7 5.34 -7 4.68 -7 4 C-2.53 0 -2.53 0 0 0 Z " fill="#E5EAEF" transform="translate(1205,367)"/>
<path d="M0 0 C4.29 0.33 8.58 0.66 13 1 C13 1.66 13 2.32 13 3 C14.98 3 16.96 3 19 3 C19 3.66 19 4.32 19 5 C19.7 5.16 20.4 5.33 21.12 5.5 C25.32 7.69 27.59 10.98 30 15 C30.88 18 30.88 18 31 20 C30.34 20.33 29.68 20.66 29 21 C28.65 20.18 28.3 19.36 27.93 18.52 C24.87 11.83 22.98 7.71 16 5 C12.85 4.03 10.04 3.89 6.75 3.94 C5.41 3.95 5.41 3.95 4.05 3.96 C3.37 3.98 2.7 3.99 2 4 C1.34 2.68 0.68 1.36 0 0 Z " fill="#ECF2F7" transform="translate(290,1038)"/>
<path d="M0 0 C0.66 0 1.32 0 2 0 C5.33 6.67 8.67 13.33 12 20 C9 19 9 19 7.75 17.12 C5.26 14.1 2.64 13.38 -1 12 C-0.74 10.05 -0.48 8.09 -0.22 6.14 C0.07 3.7 0.07 3.7 0 0 Z " fill="#E5EAEF" transform="translate(336,147)"/>
<path d="M0 0 C5.16 -0.26 5.16 -0.26 8 1 C10.38 4.41 11.92 7.99 13 12 C12.67 12.99 12.34 13.98 12 15 C11.04 13.73 10.08 12.46 9.12 11.19 C8.59 10.48 8.06 9.77 7.51 9.04 C6.29 7.4 5.14 5.7 4 4 C1.45 2.8 1.45 2.8 -1 2 C-0.67 1.34 -0.34 0.68 0 0 Z " fill="#E3E8EE" transform="translate(105,793)"/>
<path d="M0 0 C0.33 0 0.66 0 1 0 C1.33 6.27 1.66 12.54 2 19 C1.67 19 1.34 19 1 19 C0.73 17.99 0.46 16.98 0.19 15.94 C-0.57 13.27 -1.49 10.78 -2.62 8.25 C-4 5 -4 5 -4 2 C-3.01 2 -2.02 2 -1 2 C-0.67 1.34 -0.34 0.68 0 0 Z " fill="#F4F7FA" transform="translate(85,647)"/>
<path d="M0 0 C0.66 0 1.32 0 2 0 C3.59 1.79 3.59 1.79 5.38 4.19 C5.99 5 6.61 5.82 7.25 6.66 C7.82 7.43 8.4 8.21 9 9 C10.33 10.67 11.66 12.34 13 14 C12.67 14.66 12.34 15.32 12 16 C11.67 15.01 11.34 14.02 11 13 C10.34 13 9.68 13 9 13 C1 5.62 1 5.62 0 0 Z " fill="#D4DDE6" transform="translate(209,959)"/>
<path d="M0 0 C0.79 -0.03 1.58 -0.05 2.4 -0.08 C5.1 0.32 5.93 1.18 7.62 3.25 C6.21 3.3 4.79 3.34 3.38 3.38 C2.59 3.4 1.8 3.42 0.98 3.45 C-1.58 3.23 -3.17 2.54 -5.38 1.25 C-3.8 -0.33 -2.18 0.04 0 0 Z " fill="#FAFDFF" transform="translate(279.375,1110.75)"/>
</svg>
